<svg xmlns="http://www.w3.org/2000/svg" style="display:none">
<symbol id="more-l" viewBox="0 0 48 48">
<path fill="currentColor" d="M5.5 24.5a3 3 0 1 1 6 0 3 3 0 0 1-6 0m3-2a2 2 0 1 0 0 4 2 2 0 0 0 0-4m12 2a3 3 0 1 1 6 0 3 3 0 0 1-6 0m3-2a2 2 0 1 0 0 4 2 2 0 0 0 0-4m12 2a3 3 0 1 1 6 0 3 3 0 0 1-6 0m3-2a2 2 0 1 0 0 4 2 2 0 0 0 0-4"/>
</symbol>
<symbol id="more-s" viewBox="0 0 24 24">
<path fill="currentColor" d="M2.9 11.5a1.6 1.6 0 1 1 3.2 0 1.6 1.6 0 0 1-3.2 0m1.6-.6a.6.6 0 1 0 0 1.2.6.6 0 0 0 0-1.2m5.4.6a1.6 1.6 0 1 1 3.2 0 1.6 1.6 0 0 1-3.2 0m1.6-.6a.6.6 0 1 0 0 1.2.6.6 0 0 0 0-1.2m5.4.6a1.6 1.6 0 1 1 3.2 0 1.6 1.6 0 0 1-3.2 0m1.6-.6a.6.6 0 1 0 0 1.2.6.6 0 0 0 0-1.2"/>
</symbol>
<symbol id="off-canvas-l" viewBox="0 0 48 48">
<path fill="currentColor" d="M35 19H13v-1h22zm-22 5h22v1H13zm0 6h22v1H13z"/>
</symbol>
<symbol id="off-canvas-s" viewBox="0 0 24 24">
<path fill="currentColor" d="M21 8H3V7h18zM3 11h18v1H3zm0 4h18v1H3z"/>
</symbol>
<symbol id="power-l" viewBox="0 0 48 48">
<path fill="currentColor" d="M6 25h4v1H6a17.54 17.54 0 0 0 4.8 11.49l2.85-2.84.7.7-3.55 3.56-.35-.36A18.53 18.53 0 0 1 5 25.5C5 15.32 13.32 7 23.5 7S42 15.32 42 25.5a18.1 18.1 0 0 1-5.45 13.06l-.36.34-3.54-3.55.7-.7 2.85 2.84c2.89-2.97 4.67-7 4.8-11.49h-4v-1h4a17.44 17.44 0 0 0-4.8-11.5l-2.85 2.85-.7-.7 2.85-2.86A17.44 17.44 0 0 0 24 8.01V12h-1V8a17.44 17.44 0 0 0-11.5 4.8l2.85 2.85-.7.7-2.86-2.85A17.44 17.44 0 0 0 6.01 25Zm14 .5a3.5 3.5 0 1 1 6.93.7l8.04 2.93-.34.94-8.04-2.93A3.5 3.5 0 0 1 20 25.5m3.5-2.5a2.5 2.5 0 1 0 0 5 2.5 2.5 0 0 0 0-5"/>
</symbol>
<symbol id="power-s" viewBox="0 0 24 24">
<path fill="currentColor" d="M1.01 13H3v1H1.01a10.46 10.46 0 0 0 2.7 6.58l1.44-1.43.7.7-2.15 2.16-.35-.36A11.47 11.47 0 0 1 0 13.5C0 7.12 5.12 2 11.5 2S23 7.12 23 13.5a11.5 11.5 0 0 1-3.35 8.15l-.35.36-2.15-2.16.7-.7 1.44 1.43A10.55 10.55 0 0 0 22 14h-2v-1h1.99a10.46 10.46 0 0 0-2.71-6.57l-1.43 1.42-.7-.7 1.42-1.43A10.46 10.46 0 0 0 12 3.02V5h-1V3.01a10.46 10.46 0 0 0-6.57 2.71l1.42 1.43-.7.7-1.43-1.42A10.46 10.46 0 0 0 1.02 13Zm16.84 2.98-6.5-2 .3-.96 6.5 2z"/>
</symbol>
<symbol id="remove-l" viewBox="0 0 48 48">
<path fill="currentColor" d="M41 23.5v1H7v-1z"/>
</symbol>
<symbol id="remove-s" viewBox="0 0 24 24">
<path fill="currentColor" d="M18 11.5v1H6v-1z"/>
</symbol>
<symbol id="resize-decrease-l" viewBox="0 0 48 48">
<path fill="currentColor" d="M27 20.3 42.14 5.14l.7.7L27.7 21H40v1H26V8h1zm-6.72 6.72L8 27v-1l14 .02V40h-1V27.7L5.85 42.86l-.7-.7 15.13-15.13Z"/>
</symbol>
<symbol id="resize-decrease-s" viewBox="0 0 24 24">
<path fill="currentColor" d="m14 9.28 7.15-7.13.7.7L14.71 10H20v1h-7V4h1zM4 13h7v7h-1v-5.3l-7.15 7.15-.7-.7L9.29 14H4.01v-1Z"/>
</symbol>
<symbol id="resize-increase-l" viewBox="0 0 48 48">
<path fill="currentColor" d="M29 5h14v14h-1V6.7L26.85 21.86l-.71-.71L41.29 6H29zM6 41.3l15.15-15.15.7.7L6.72 42H19v1H5V29h1z"/>
</symbol>
<symbol id="resize-increase-s" viewBox="0 0 24 24">
<path fill="currentColor" d="M20.3 3H15V2h7v7h-1V3.72l-7.15 7.13-.7-.7L20.29 3ZM3 20.3l7.15-7.15.7.7L3.71 21h5.28v1H2v-7h1z"/>
</symbol>
<symbol id="select-l" viewBox="0 0 48 48">
<path fill="currentColor" d="M35.6 14.7 20.75 34.46l-8.6-8.6.7-.71 7.8 7.79L34.8 14.1z"/>
</symbol>
<symbol id="settings-l" viewBox="0 0 48 48">
<path fill="currentColor" d="M20.2 5h7.7v5.616c.999.283 1.986.69 2.908 1.169L34.8 7.793l5.507 5.507-3.99 3.991c.477.909.89 1.845 1.174 2.909H43.1v7.7h-5.716c-.283.999-.69 1.986-1.169 2.908l3.992 3.992-5.507 5.507-3.991-3.99c-.909.477-1.845.89-2.909 1.174V43.1h-7.7v-5.716a15.7 15.7 0 0 1-2.908-1.169L13.2 40.207 7.693 34.7l3.99-3.991c-.477-.909-.89-1.845-1.174-2.909H5v-7.7h5.616c.283-.999.69-1.986 1.169-2.908L7.793 13.2 13.3 7.693l3.991 3.99c.909-.477 1.845-.89 2.909-1.174zm1 1v5.298l-.388.09c-1.238.285-2.294.762-3.373 1.35l-.328.18-3.811-3.81L9.207 13.2l3.811 3.811-.18.328c-.583 1.07-1.065 2.23-1.353 3.382l-.095.379H6v5.7h5.298l.09.388c.285 1.238.762 2.294 1.35 3.373l.18.328-3.81 3.811 4.092 4.093 3.811-3.811.328.18c1.07.583 2.23 1.065 3.382 1.353l.379.095v5.49h5.7v-5.398l.388-.09c1.238-.285 2.294-.763 3.373-1.35l.328-.18 3.811 3.81 4.093-4.092-3.811-3.811.18-.328c.583-1.07 1.065-2.23 1.353-3.382l.095-.379h5.49v-5.7h-5.398l-.09-.388c-.285-1.238-.763-2.294-1.35-3.373l-.18-.328 3.81-3.811L34.8 9.207l-3.811 3.811-.328-.18c-1.07-.583-2.23-1.065-3.382-1.353l-.379-.095V6zM17 24c0-3.876 3.124-7 7-7s7 3.124 7 7-3.124 7-7 7-7-3.124-7-7m7-6c-3.324 0-6 2.676-6 6s2.676 6 6 6 6-2.676 6-6-2.676-6-6-6"/>
</symbol>
<symbol id="select-s" viewBox="0 0 24 24">
<path fill="currentColor" d="m18 6.61-8.36 10.4L5 12.5l.7-.72 3.85 3.73L17.23 6l.78.62Z"/>
</symbol>
<symbol id="settings-s" viewBox="0 0 24 24">
<path fill="currentColor" d="M9.4 2h4.2v2.84c.37.13.75.27 1.11.44L16.7 3.3l3 3.01-1.98 1.99c.17.36.31.74.44 1.11H21v4.3h-2.84c-.13.37-.27.75-.44 1.11l2 2-3.03 2.89-1.98-1.98c-.36.17-.74.31-1.11.44V21H9.4v-2.84a9 9 0 0 1-1.11-.44L6.3 19.7l-3-3.01 1.98-1.99a9 9 0 0 1-.44-1.11H2V9.4h2.84c.13-.37.27-.75.44-1.11L3.3 6.3l3.01-3L8.3 5.28c.36-.17.74-.31 1.11-.44V2Zm1 1v2.56l-.34.11c-.61.2-1.16.4-1.6.66l-.34.2L6.3 4.71 4.7 6.3l1.83 1.82-.2.34c-.27.44-.45.99-.66 1.6l-.11.34H3v2.2h2.56l.11.34c.2.61.4 1.16.66 1.6l.2.34-1.82 1.82 1.59 1.6 1.82-1.83.34.2c.44.27.99.45 1.6.66l.34.11V20h2.2v-2.56l.34-.11a8.3 8.3 0 0 0 1.6-.66l.34-.2 1.83 1.83 1.57-1.5-1.81-1.82.2-.34c.27-.44.45-.99.66-1.6l.11-.34H20v-2.3h-2.56l-.11-.34a8.2 8.2 0 0 0-.66-1.6l-.2-.34 1.82-1.82-1.59-1.6-1.82 1.83-.34-.2a8.2 8.2 0 0 0-1.6-.66l-.34-.11V3zm-2.9 8.5c0-2.18 1.82-4 4-4s4 1.82 4 4-1.82 4-4 4-4-1.82-4-4m4-3c-1.62 0-3 1.38-3 3s1.38 3 3 3 3-1.38 3-3-1.38-3-3-3"/>
</symbol>
<symbol id="share-android-s" viewBox="0 0 24 24">
<path fill="currentColor" d="M15 6a3 3 0 1 1 .52 1.7L7.9 11.2a3 3 0 0 1 0 1.58l7.62 3.52a3 3 0 1 1-.42.9l-7.62-3.5a3 3 0 1 1 0-3.38L15.1 6.8A3 3 0 0 1 15 6m3-2a2 2 0 1 0 0 4 2 2 0 0 0 0-4M5 10a2 2 0 1 0 0 4 2 2 0 0 0 0-4m13 6a2 2 0 1 0 0 4 2 2 0 0 0 0-4"/>
</symbol>
<symbol id="share-android-l" viewBox="0 0 48 48">
<path fill="currentColor" d="M31 12a5 5 0 1 1 .66 2.48l-17.91 7.96a5 5 0 0 1 0 3.12l17.9 7.96a5 5 0 1 1-.4.92l-17.9-7.96a5 5 0 1 1 0-4.96l17.9-7.96A5 5 0 0 1 31 12m5-4a4 4 0 1 0 0 8 4 4 0 0 0 0-8M9 20a4 4 0 1 0 0 8 4 4 0 0 0 0-8m27 12a4 4 0 1 0 0 8 4 4 0 0 0 0-8"/>
</symbol>
<symbol id="share-l" viewBox="0 0 48 48">
<path fill="currentColor" d="m23.5 3.8 6.85 6.85-.7.7L24 5.71V29h-1V5.7l-5.65 5.65-.7-.7 6.85-6.86ZM11 16h8v1h-7v23h23V17h-7v-1h8v25H11z"/>
</symbol>
<symbol id="signal-s" viewBox="0 0 24 24">
<path fill="currentColor" d="M22 20A18 18 0 0 0 4 2V1a19 19 0 0 1 19 19zm-5 0A13 13 0 0 0 4 7V6a14 14 0 0 1 14 14zm-5 0a8 8 0 0 0-8-8v-1a9 9 0 0 1 9 9zm-7.5-2a1.5 1.5 0 1 0 0 3 1.5 1.5 0 0 0 0-3M2 19.5a2.5 2.5 0 1 1 5 0 2.5 2.5 0 0 1-5 0"/>
</symbol>
<symbol id="signal-l" viewBox="0 0 48 48">
<path fill="currentColor" d="M42 42A36 36 0 0 0 6 6V5a37 37 0 0 1 37 37zm-10 0A26 26 0 0 0 6 16v-1a27 27 0 0 1 27 27zm-10 0A16 16 0 0 0 6 26v-1a17 17 0 0 1 17 17zM8.5 36a3.5 3.5 0 1 0 0 7 3.5 3.5 0 0 0 0-7M4 39.5a4.5 4.5 0 1 1 9 0 4.5 4.5 0 0 1-9 0"/>
</symbol>
<symbol id="tour-l" viewBox="0 0 48 48">
<path fill="currentColor" d="M7.69 5H8a4.5 4.5 0 0 1 4.5 4.5 6.8 6.8 0 0 1-.67 2.4c-.38.9-.89 1.88-1.4 2.77a58 58 0 0 1-1.97 3.24l-.03.05-.01.01L8 17.7l-.42.27-.01-.01-.03-.06a44 44 0 0 1-.59-.92 69 69 0 0 1-1.39-2.35c-.5-.9-1.01-1.88-1.4-2.76A6.8 6.8 0 0 1 3.5 9.5 4.39 4.39 0 0 1 7.68 5ZM8 17.7l-.42.27.42.64.42-.63zm0-.92a61 61 0 0 0 1.56-2.6c.5-.88.99-1.82 1.36-2.67.37-.87.58-1.57.58-2.01C11.5 7.58 9.92 6 8 6h-.29A3.39 3.39 0 0 0 4.5 9.48v.02c0 .41.2 1.1.58 1.97.37.84.86 1.79 1.36 2.67A61 61 0 0 0 8 16.78M25.7 5h.3a4.5 4.5 0 0 1 4.5 4.5 6.8 6.8 0 0 1-.67 2.4c-.38.9-.89 1.88-1.4 2.77a58 58 0 0 1-1.97 3.24l-.03.05-.01.01-.42-.27-.42.27-.01-.01-.03-.06a48 48 0 0 1-.59-.92 40 40 0 0 1-2.79-5.11 6.8 6.8 0 0 1-.66-2.36 4.39 4.39 0 0 1 4.18-4.5V5Zm.3 12.7-.42.27.42.64.42-.63zm0-.92a66 66 0 0 0 1.56-2.6c.5-.88 1-1.82 1.36-2.67.37-.87.58-1.57.58-2.01C29.5 7.58 27.92 6 26 6h-.29a3.39 3.39 0 0 0-3.21 3.48v.02c0 .41.2 1.1.58 1.97.37.84.86 1.79 1.36 2.67A61 61 0 0 0 26 16.78M38 20h.41a7.6 7.6 0 0 1 7.6 7.49v.01c0 1.09-.48 2.53-1.14 4.03a49 49 0 0 1-2.43 4.68A92 92 0 0 1 39 41.67l-.06.08-.01.03-.42-.28-.41.28-.02-.03-.06-.08A59 59 0 0 1 37 40.13a92 92 0 0 1-2.42-3.92 49 49 0 0 1-2.43-4.68C31.48 30.04 31 28.6 31 27.51a7.15 7.15 0 0 1 6.97-7.5zm.51 21.5-.41.28.41.6.41-.6zm0-.89a91 91 0 0 0 3.07-4.9c.87-1.5 1.73-3.1 2.38-4.58A10.4 10.4 0 0 0 45 27.51 6.6 6.6 0 0 0 38.4 21h-.39c-3.54.2-6.2 2.97-6.01 6.47v.03c0 .86.4 2.14 1.05 3.63a48 48 0 0 0 2.38 4.58 91 91 0 0 0 3.07 4.9ZM22.5 22H8v-1h17.5L10.95 31.92l27.27 13.73-.45.9L9.05 32.08zm16 3a2.45 2.45 0 0 0-2.5 2.5c0 1.42 1.08 2.5 2.5 2.5s2.5-1.08 2.5-2.5-1.08-2.5-2.5-2.5M35 27.5c0-1.98 1.52-3.5 3.5-3.5s3.5 1.52 3.5 3.5-1.52 3.5-3.5 3.5a3.45 3.45 0 0 1-3.5-3.5"/>
</symbol>
<symbol id="share-s" viewBox="0 0 24 24">
<path fill="currentColor" d="m11.5 1.8 3.85 3.85-.7.7L12 3.71V15h-1V3.7L8.35 6.36l-.7-.7zM5 8h4v1H6v11h11V9h-3.02V8H18v13H5z"/>
</symbol>
<symbol id="user-l" viewBox="0 0 48 48">
<path fill="currentColor" d="M20.5 8a2.45 2.45 0 0 0-2.5 2.5v7c0 1.42 1.08 2.5 2.5 2.5h7c1.42 0 2.5-1.08 2.5-2.5v-7C30 9.08 28.92 8 27.5 8zM17 10.5C17 8.52 18.52 7 20.5 7h7c1.98 0 3.5 1.52 3.5 3.5v7c0 1.98-1.52 3.5-3.5 3.5h-7a3.45 3.45 0 0 1-3.5-3.5zM14.5 25a2.45 2.45 0 0 0-2.5 2.5V40h24V27.5c0-1.42-1.08-2.5-2.5-2.5zM11 27.5c0-1.98 1.52-3.5 3.5-3.5h19c1.98 0 3.5 1.52 3.5 3.5V41H11z"/>
</symbol>
<symbol id="user-s" viewBox="0 0 24 24">
<path fill="currentColor" d="M10.5 4C9.68 4 9 4.68 9 5.5v3c0 .82.68 1.5 1.5 1.5h3c.82 0 1.5-.68 1.5-1.5v-3c0-.82-.68-1.5-1.5-1.5zM8 5.5A2.5 2.5 0 0 1 10.5 3h3A2.5 2.5 0 0 1 16 5.5v3a2.5 2.5 0 0 1-2.5 2.5h-3A2.5 2.5 0 0 1 8 8.5zm-1.87 8.63c-.07.07-.13.18-.13.37V21h12v-6.5c0-.19-.06-.3-.13-.37S17.7 14 17.5 14h-11c-.19 0-.3.06-.37.13m-.7-.7A1.5 1.5 0 0 1 6.5 13h11c.41 0 .8.14 1.08.42s.42.67.42 1.08V22H5v-7.5c0-.41.14-.8.42-1.08Z"/>
</symbol>
<symbol id="tour-s" viewBox="0 0 24 24">
<path fill="currentColor" d="M3.4 3C2.6 3 2 3.64 2 4.5c0 .16.08.46.27.89a15.5 15.5 0 0 0 1.23 2.2 18.4 18.4 0 0 0 1.23-2.2c.19-.43.27-.73.27-.89C5 3.68 4.32 3 3.5 3zm.1 5.5-.41.28-.03-.03a18 18 0 0 1-.3-.45l-.7-1.14a14 14 0 0 1-.7-1.37A3.5 3.5 0 0 1 1 4.5C1 3.16 2 2 3.4 2h.1A2.5 2.5 0 0 1 6 4.5c0 .39-.17.86-.35 1.29a27 27 0 0 1-1.71 2.96l-.02.02v.01zm0 0 .41.28-.41.6-.41-.6zM12.4 3c-.8 0-1.4.64-1.4 1.5 0 .16.08.46.27.89a15.5 15.5 0 0 0 1.23 2.2 18.4 18.4 0 0 0 1.23-2.2c.19-.43.27-.73.27-.89 0-.82-.68-1.5-1.5-1.5zm.1 5.5-.41.28-.03-.03a12 12 0 0 1-.3-.45l-.7-1.14c-.25-.44-.5-.92-.7-1.37A3.5 3.5 0 0 1 10 4.5C10 3.16 11 2 12.4 2h.1A2.5 2.5 0 0 1 15 4.5c0 .39-.17.86-.35 1.29a27 27 0 0 1-1.71 2.96l-.02.02v.01zm0 0 .41.28-.41.6-.41-.6zm5.79-.5h.21a4.5 4.5 0 0 1 4.5 4.5c0 .66-.3 1.52-.67 2.38-.38.88-.9 1.83-1.4 2.7a54 54 0 0 1-1.97 3.14l-.04.05v.01l-.42-.28-.41.28-.01-.01-.04-.05a40 40 0 0 1-.58-.89 33 33 0 0 1-2.8-4.95A6.6 6.6 0 0 1 14 12.5 4.34 4.34 0 0 1 18.28 8Zm.21 12.5-.41.28.41.6.41-.6zm0-.9a53 53 0 0 0 1.57-2.53c.5-.85.98-1.76 1.35-2.6s.58-1.53.58-1.97c0-1.92-1.58-3.5-3.5-3.5h-.19c-1.94.1-3.4 1.58-3.31 3.48v.02c0 .44.2 1.13.58 1.98.37.83.86 1.74 1.35 2.6a53 53 0 0 0 1.57 2.52M9.94 11H3v-1h10.06l-7.61 5.44 13.29 7.12-.48.88-14.7-7.88L9.93 11Z"/>
</symbol>
<symbol id="add-s" viewBox="0 0 24 24">
<path fill="currentColor" d="M12.5 5.5v6h6v1h-6v6h-1v-6h-6v-1h6v-6z"/>
</symbol>
<symbol id="add-l" viewBox="0 0 48 48">
<path fill="currentColor" d="M24.5 7.5v16h16v1h-16v16h-1v-16h-16v-1h16v-16z"/>
</symbol>
<symbol id="announcements-l" viewBox="0 0 48 48">
<path fill="currentColor" d="M40.86 6H41c.74 0 1.34.48 1.8 1.15.47.67.86 1.63 1.18 2.8A37.8 37.8 0 0 1 45 19.5c0 3.93-.38 7.22-1.02 9.56a9.4 9.4 0 0 1-1.18 2.79c-.46.67-1.06 1.15-1.8 1.15h-.14l-.11-.07h-.01l-.02-.02a19 19 0 0 0-.42-.23c-.29-.16-.7-.4-1.24-.67a64 64 0 0 0-4.27-2.05C31.34 28.46 27.04 27 23.5 27h-5.3l5.5 16h-8.57l-5-16H3V12h20.5c3.54 0 7.84-1.46 11.29-2.96a64 64 0 0 0 5.93-2.96h.02v-.01zm.26 1.01a35 35 0 0 1-1.6.87 64 64 0 0 1-4.33 2.08c-3.32 1.44-7.54 2.9-11.19 3.03v13.02c3.65.13 7.87 1.6 11.19 3.03A65 65 0 0 1 41.12 32c.24-.05.53-.24.86-.7.38-.55.73-1.39 1.04-2.5.6-2.21.98-5.42.98-9.29s-.37-7.08-.98-9.3a8.4 8.4 0 0 0-1.04-2.48c-.33-.47-.62-.66-.86-.7ZM23 26V13H4v13h6.87l5 16h6.43l-5.5-16z"/>
</symbol>
<symbol id="arrow-left-u-turn-l" viewBox="0 0 48 48">
<path fill="currentColor" d="M14 14.5C14 9.82 17.82 6 22.5 6S31 9.82 31 14.5V42h-1V14.5c0-4.12-3.38-7.5-7.5-7.5a7.52 7.52 0 0 0-7.5 7.5v6.8l4.65-4.65.7.7-5.85 5.86-5.85-5.86.7-.7L14 21.29z"/>
</symbol>
<symbol id="arrow-down-l" viewBox="0 0 48 48">
<path fill="currentColor" d="m15.15 19.85.7-.7 8.65 8.64 8.65-8.64.7.7-9.35 9.36z"/>
</symbol>
<symbol id="arrow-down-s" viewBox="0 0 24 24">
<path fill="currentColor" d="m6.65 10.35.7-.7 5.15 5.14 5.15-5.14.7.7-5.85 5.86z"/>
</symbol>
<symbol id="arrow-right-light-l" viewBox="0 0 48 48">
<path fill="currentColor" d="M31.3 7H25V6h8v8h-1V7.7L20.36 19.36A11.8 11.8 0 0 0 17 27.5V42h-1V27.5a12.8 12.8 0 0 1 3.64-8.85z"/>
</symbol>
<symbol id="announcements-s" viewBox="0 0 24 24">
<path fill="currentColor" d="M21.38 2h.12c.5 0 .9.27 1.2.65.31.37.55.9.73 1.52.37 1.25.57 3.06.57 5.33s-.2 4.08-.57 5.33a4.5 4.5 0 0 1-.72 1.52c-.3.38-.71.65-1.21.65h-.12l-.1-.05h-.02l-.05-.03a28 28 0 0 0-.93-.43 40 40 0 0 0-2.5-1.02c-2-.75-4.43-1.47-6.28-1.47H9.2l3 9H7.13l-3-9H0V5h11.5c1.85 0 4.28-.72 6.29-1.47a45 45 0 0 0 3.42-1.45l.05-.02h.02zm.2 1.01a31 31 0 0 1-.9.42c-.63.28-1.52.66-2.54 1.04A23.3 23.3 0 0 1 12 5.99V13c1.95.11 4.28.83 6.14 1.52A46 46 0 0 1 21.59 16c.1-.03.2-.1.34-.26.19-.24.37-.62.54-1.18.33-1.13.53-2.82.53-5.05s-.2-3.92-.53-5.05a3.5 3.5 0 0 0-.54-1.18.8.8 0 0 0-.34-.26ZM11 13V6H1v7h3.86l3 9h2.95l-3-9z"/>
</symbol>
<symbol id="arrow-left-u-turn-s" viewBox="0 0 24 24">
<path fill="currentColor" d="M7 6.5C7 3.42 9.42 1 12.5 1S18 3.42 18 6.5V24h-1V6.5C17 3.98 15.02 2 12.5 2A4.45 4.45 0 0 0 8 6.5v4.8l3.65-3.65.7.7-4.85 4.86-4.85-4.86.7-.7L7 11.29z"/>
</symbol>
<symbol id="arrow-right-light-s" viewBox="0 0 24 24">
<path fill="currentColor" d="M15.28 2H10V1h7v7h-1V2.7L9.15 9.45A7.6 7.6 0 0 0 7 14.8V24H6v-9.2a8.6 8.6 0 0 1 2.45-6.05z"/>
</symbol>
<symbol id="arrow-up-l" viewBox="0 0 48 48">
<path fill="currentColor" fill-rule="evenodd" d="m24.5 18.8 9.35 9.35-.7.7-8.65-8.64-8.65 8.64-.7-.7 9.35-9.36Z" clip-rule="evenodd"/>
</symbol>
<symbol id="back-s" viewBox="0 0 24 24">
<path fill="currentColor" d="m10.21 12 5.12-5.08-.7-.71L8.79 12l5.84 5.8.7-.72L10.22 12Z"/>
</symbol>
<symbol id="benefits-l" viewBox="0 0 48 48">
<path fill="currentColor" d="M13.86 5h20.28l11.52 12.62L24.74 44h-1.48L2.34 17.62zm.44 1L4.26 17h9.51l9.57-11zm10.36 0 9.57 11h9.51L33.7 6zm8.24 11L24 6.76 15.1 17zm-18.17 1L24 42.1 33.27 18zm-1.07 0H3.92l18.9 23.85L13.67 18Zm11.51 23.85L44.07 18h-9.73z"/>
</symbol>
<symbol id="arrow-up-s" viewBox="0 0 24 24">
<path fill="currentColor" fill-rule="evenodd" d="m12.5 9.3 5.85 5.85-.7.7-5.15-5.14-5.15 5.14-.7-.7 5.85-5.86Z" clip-rule="evenodd"/>
</symbol>
<symbol id="back-l" viewBox="0 0 48 48">
<path fill="currentColor" d="m28.15 15.15.7.7-8.64 8.65 8.64 8.65-.7.7-9.36-9.35z"/>
</symbol>
<symbol id="bookmark-s" viewBox="0 0 24 24">
<path fill="currentColor" d="M5 0h14v23.7l-7-7-7 7zm1 1v20.3l6-6 6 6V1z"/>
</symbol>
<symbol id="benefits-s" viewBox="0 0 24 24">
<path fill="currentColor" d="m11.99 2 .01-.01.01.01h5.21l5.94 6.48L12.49 22h-.98L.84 8.48 6.78 2zm1.54 17.07L21.47 9h-4.03l-3.9 10.07ZM17.23 8h4.13l-4.58-5h-3.9zM15.9 8 12 3.51 8.1 8zM7.73 9 12 20.24 16.37 9zm-.96-1 4.35-5h-3.9L2.64 8zM2.53 9l7.98 10.12L6.66 9z"/>
</symbol>
<symbol id="bookmark-l" viewBox="0 0 48 48">
<path fill="currentColor" d="M10 3h27v42.7L23.5 32.2 10 45.7zm1 1v39.3l12.5-12.5L36 43.3V4z"/>
</symbol>
<symbol id="cancel-s" viewBox="0 0 24 24">
<path fill="currentColor" d="m12.17 12.88-4.81 4.81-.71-.7 4.81-4.82-4.81-4.81.7-.71 4.82 4.81 4.81-4.81.71.7-4.81 4.82 4.81 4.81-.7.71z"/>
</symbol>
<symbol id="calendar-events-l" viewBox="0 0 48 48">
<path fill="currentColor" d="M13 11.9v-.1h1v12h3.6v.8H9.1v-.8h3.6v-11l-3.6.8v-.8zm9.3 5.3c5.5.3 8.3 1.6 8.3 4s-2.1 3.7-5.9 3.7c-1.5 0-2.9-.2-4.3-.6v-.9c1.4.4 2.8.6 4.3.6 3.8 0 4.6-1.5 4.6-2.8 0-2-2.8-3.1-8.4-3.2l.2-6h8.7v.8h-7.7l-.2 4.4z"/><path fill="currentColor" d="M38 3H3V2h35zM3 36.6V7h1v29.6c0 .74.6 1.4 1.4 1.4H27V28h10V7h1v21.8L27.8 39H13v4.6c0 .74.6 1.4 1.4 1.4h28.2c.74 0 1.4-.6 1.4-1.4V13h1v30.6a2.4 2.4 0 0 1-2.4 2.4H14.4a2.4 2.4 0 0 1-2.4-2.4V39H5.4A2.4 2.4 0 0 1 3 36.6M36.4 29H28v8.4z"/>
</symbol>
<symbol id="calendar-events-s" viewBox="0 0 24 24">
<path fill="currentColor" d="m4 5.9 2.1-.5h.6v5.8h1.8v.8H4v-.8h1.8V6.3L4 6.7zm5.7 5.8v-.8c.7.2 1.5.3 2.3.4 1.4 0 2-.5 2-1.2 0-1.2-2.7-1.4-4.1-1.4l.2-3.3h4.5v.8h-3.7L10.8 8c1.9.1 4.1.5 4.1 2.1 0 1.1-.9 2-3 2-.8 0-1.5-.2-2.2-.4"/><path fill="currentColor" d="M19 1H0V0h19zM0 18.5V3h1v15.5c0 .26.2.5.5.5H13v-5h5V3h1v11.7L13.7 20H6v2.5c0 .19.06.3.13.37s.18.13.37.13h15c.19 0 .3-.06.37-.13s.13-.18.13-.37V6h1v16.5c0 .41-.14.8-.42 1.08a1.5 1.5 0 0 1-1.08.42h-15c-.41 0-.8-.14-1.08-.42A1.5 1.5 0 0 1 5 22.5V20H1.5C.6 20 0 19.24 0 18.5M17.3 15H14v3.3z"/>
</symbol>
<symbol id="caution-l" viewBox="0 0 48 48">
<path fill="currentColor" d="M23.5 3.47 45.35 43H1.65zM3.35 42h40.3L23.5 5.53zM23 29V18h1v11zm1 4v4h-1v-4z"/>
</symbol>
<symbol id="cancel-l" viewBox="0 0 48 48">
<path fill="currentColor" d="m24.5 24.2-7.78 7.78-.7-.7 7.77-7.78-7.78-7.78.71-.7 7.78 7.77 7.78-7.78.7.71-7.78 7.78 7.8 7.78-.71.7-7.78-7.78Z"/>
</symbol>
<symbol id="caution-s" viewBox="0 0 24 24">
<path fill="currentColor" d="M11.5 1.47 22.35 21H.65zM2.35 20h18.3L11.5 3.53zM11 14V8h1v6zm1 2v2h-1v-2z"/>
</symbol>
<symbol id="compass-s" viewBox="0 0 24 24">
<path fill="currentColor" d="m15.96 11.84.04-11-7.61 7.94a4.75 4.75 0 0 0-1.33 3.27l-.03 11 7.6-7.94a4.75 4.75 0 0 0 1.33-3.27m-7.78-.7 6.29 2.54c-.16.26-.34.51-.56.74l-5.88 6.13.03-8.5c0-.3.04-.61.12-.91"/>
</symbol>
<symbol id="compass-l" viewBox="0 0 48 48">
<path fill="currentColor" d="M31.93 23.58 32 2.75 17.58 17.78a9.04 9.04 0 0 0-2.51 6.23l-.08 20.84L29.42 29.8a9.04 9.04 0 0 0 2.51-6.23ZM16.48 21.5l13.66 5.52a8 8 0 0 1-1.45 2.1L16.01 42.33l.06-18.32c0-.87.14-1.71.41-2.52Z"/>
</symbol>
<symbol id="copy-s" viewBox="0 0 24 24">
<path fill="currentColor" d="M5 0h12.2L22 4.8V21h-2v-1h1V5.2L16.8 1H6v1H5zM2 3h12.2L19 7.8V24H2zm1 1v19h15V9h-5V4zm11 .2V8h3.8z"/>
</symbol>
<symbol id="copy-l" viewBox="0 0 48 48">
<path fill="currentColor" d="M8 0h23.7L43 11.3V44h-3v-1h2V11.7L31.3 1H9v2H8zM4 4h23.7L39 15.3V48H4zm1 1v42h33V16H27V5zm23 .7V15h9.3z"/>
</symbol>
<symbol id="download-s" viewBox="0 0 24 24">
<path fill="currentColor" d="M12 4h1v10.3l3.65-3.65.7.7-4.85 4.86-4.85-4.86.7-.7L12 14.29zm7 15v1H6v-1z"/>
</symbol>
<symbol id="external-link-s" viewBox="0 0 24 24">
<path fill="currentColor" d="M18.3 5H12V4h8v8h-1V5.7l-7.15 7.15-.7-.7L18.29 5ZM4 7h6v1H5v11h11v-5h1v6H4z"/>
</symbol>
<symbol id="download-l" viewBox="0 0 48 48">
<path fill="currentColor" d="M24 30.3V9h1v21.3l8.15-8.15.7.7-9.35 9.36-9.35-9.36.7-.7L24 30.29ZM11 39v-1h27v1z"/>
</symbol>
<symbol id="erase-l" viewBox="0 0 48 48">
<path fill="currentColor" d="M23 5h-2V4h5v1h-2v2h14.86l4.08 6H4.06l4.08-6H23zM8.66 8l-2.72 4h35.12l-2.72-4zM10 16v25c0 1.12.88 2 2 2h23c1.12 0 2-.88 2-2V16h1v25c0 1.68-1.32 3-3 3H12c-1.68 0-3-1.32-3-3V16z"/>
</symbol>
<symbol id="erase-s" viewBox="0 0 24 24">
<path fill="currentColor" d="M11 4h-1V3h3v1h-1v1h6.36l2.1 3H2.54l2.1-3H11zM5.16 6l-.7 1h14.08l-.7-1zM5 19.5V9h1v10.5c0 .26.2.5.5.5h10c.09 0 .22-.05.33-.17a.5.5 0 0 0 .17-.33V9h1v10.5c0 .41-.2.78-.46 1.04a1.5 1.5 0 0 1-1.04.46h-10c-.9 0-1.5-.76-1.5-1.5"/>
</symbol>
<symbol id="follow-l" viewBox="0 0 48 48">
<path fill="currentColor" d="m28.2 8.3 12.1 12.1-1.92 1.93-5-.6-2.53 2.52-1.8 7.4-3.45 3.46-5.7-5.7L9.35 39.95l-.7-.7L19.19 28.7 13.5 23l3.46-3.45 7.4-1.8 2.52-2.53-.6-5 1.93-1.93Zm-.87 2.28.6 5-3.08 3.07-7.4 1.8L14.91 23 25.6 33.7l2.55-2.55 1.8-7.4 3.07-3.08 5 .6.87-.87L28.2 9.7z"/>
</symbol>
<symbol id="external-link-l" viewBox="0 0 48 48">
<path fill="currentColor" d="M41.3 6H30.5V5H43v12.5h-1V6.7L25.85 22.86l-.7-.7L41.29 6ZM5 9h19v1H6v32h32V23h1v20H5z"/>
</symbol>
<symbol id="forward-s" viewBox="0 0 24 24">
<path fill="currentColor" d="M14.27 12 9.15 6.92l.7-.71L15.7 12l-5.84 5.8-.7-.72z"/>
</symbol>
<symbol id="geofence-l" viewBox="0 0 48 48">
<path fill="currentColor" d="M11.9 15.5C11.9 9.12 17.02 4 23.4 4s11.5 5.12 11.5 11.5c0 1.64-.73 3.82-1.76 6.1a71 71 0 0 1-3.81 7.1 134 134 0 0 1-5.5 8.35l-.02.03v.01l-.41-.29-.4.3-.01-.02-.03-.03a81 81 0 0 1-1.7-2.44 134 134 0 0 1-3.79-5.91 71 71 0 0 1-3.8-7.1c-1.04-2.28-1.77-4.46-1.77-6.1m11.5 21.3-.4.3.4.55.4-.56zm0-.86.06-.1a130 130 0 0 0 5.01-7.66 70 70 0 0 0 3.76-6.98c1.02-2.28 1.67-4.29 1.67-5.7C33.9 9.68 29.22 5 23.4 5S12.9 9.68 12.9 15.5c0 1.41.65 3.42 1.67 5.7a70 70 0 0 0 3.76 6.98 133 133 0 0 0 5 7.67zm-6-20.44a6 6 0 1 1 12 0 6 6 0 0 1-12 0m6-5a5 5 0 1 0 0 10 5 5 0 0 0 0-10M5.76 36.86c-.58.42-.76.78-.76 1.04 0 .36.3.84 1.24 1.38.9.52 2.24 1 3.93 1.4C13.54 41.5 18.23 42 23.4 42s9.85-.52 13.23-1.35c1.7-.41 3.03-.9 3.93-1.41.94-.54 1.24-1.01 1.24-1.34 0-.26-.18-.62-.76-1.04a9.6 9.6 0 0 0-2.54-1.21A39.8 39.8 0 0 0 29.36 34l.08-1c3.77.3 7.04.9 9.38 1.7 1.17.4 2.13.85 2.82 1.35.66.5 1.16 1.11 1.16 1.85 0 .92-.77 1.65-1.74 2.2-1.02.59-2.46 1.1-4.2 1.52A59.4 59.4 0 0 1 23.4 43c-5.23 0-10-.5-13.47-1.34a16.4 16.4 0 0 1-4.19-1.51C4.76 39.58 4 38.84 4 37.9c0-.74.5-1.36 1.16-1.85.69-.5 1.65-.95 2.82-1.35 2.34-.8 5.6-1.4 9.38-1.7l.08 1c-3.73.3-6.9.9-9.14 1.65a9.6 9.6 0 0 0-2.54 1.2Z"/>
</symbol>
<symbol id="follow-s" viewBox="0 0 24 24">
<path fill="currentColor" d="M13.6 3.3 20 9.7l-1.22 1.23-2.5-.3-1.13 1.12-.9 3.7-1.95 1.96-2.85-2.85-5.1 5.1-.7-.71 5.1-5.1L5.88 11l1.96-1.95 3.7-.9 1.12-1.13-.3-2.5 1.23-1.23Zm-.17 1.58.3 2.5-1.68 1.67-3.7.9L7.31 11l4.99 5 1.05-1.05.9-3.7 1.67-1.68 2.5.3.17-.17-4.99-5z"/>
</symbol>
<symbol id="filter-s" viewBox="0 0 24 24">
<path fill="currentColor" d="M2.4 4h19.2l-7.13 8.24-.02.01c-.3.31-.45.69-.45 1.05v5.47l-4 2.66V13.3c0-.36-.14-.74-.45-1.05h-.02L2.41 4Zm2.2 1 5.67 6.56c.48.49.73 1.1.73 1.74v6.27l2-1.34V13.3c0-.63.25-1.25.73-1.74L19.41 5H4.59Z"/>
</symbol>
<symbol id="filter-l" viewBox="0 0 48 48">
<path fill="currentColor" d="M4.35 8h39.3L28.76 23.95A2.38 2.38 0 0 0 28 25.7v11.06l-8 5.71V25.7c0-.69-.26-1.33-.72-1.72l-.02-.02zm2.3 1 13.3 14.24A3.23 3.23 0 0 1 21 25.7v14.83l6-4.29V25.7c0-.94.36-1.76 1.04-2.45L41.34 9H6.66Z"/>
</symbol>
<symbol id="gps-s" viewBox="0 0 24 24">
<path fill="currentColor" d="M12.5 3.51V6.5h-1V3.51a8.46 8.46 0 0 0-7.99 7.99H6.5v1H3.51a8.46 8.46 0 0 0 7.99 7.99V17.5h1v2.99a8.46 8.46 0 0 0 7.99-7.99H17.5v-1h2.99a8.46 8.46 0 0 0-7.99-7.99m0-1a9.46 9.46 0 0 1 8.99 8.99h2.01v1h-2.01a9.46 9.46 0 0 1-8.99 8.99v2.01h-1v-2.01a9.46 9.46 0 0 1-8.99-8.99H.5v-1h2.01a9.46 9.46 0 0 1 8.99-8.99V.5h1z"/>
</symbol>
<symbol id="geofence-s" viewBox="0 0 24 24">
<path fill="currentColor" d="M11.5 1.8h.01c3.57.1 6.5 3.23 6.29 6.72 0 .9-.4 2.1-.95 3.33a40 40 0 0 1-2.02 3.85 76 76 0 0 1-2.85 4.49l-.05.07-.02.02-.41-.28-.41.29v-.01l-.02-.02-.05-.07a47 47 0 0 1-.84-1.26 76 76 0 0 1-2.01-3.23 40 40 0 0 1-2.02-3.85A9.2 9.2 0 0 1 5.2 8.5a6.59 6.59 0 0 1 6.28-6.71h.02Zm0 18.2-.41.29.41.58.41-.58zm0-.89a76 76 0 0 0 2.47-3.91 39 39 0 0 0 1.97-3.76c.54-1.22.86-2.25.86-2.94v-.03a5.52 5.52 0 0 0-5.3-5.67 5.59 5.59 0 0 0-5.3 5.68v.02c0 .69.32 1.72.86 2.94.54 1.2 1.25 2.53 1.97 3.76a75 75 0 0 0 2.47 3.91m0-12.61c-1.12 0-2 .88-2 2s.88 2 2 2 2-.88 2-2-.88-2-2-2m-3 2c0-1.68 1.32-3 3-3s3 1.32 3 3-1.32 3-3 3-3-1.32-3-3M2.07 20.62c-.24.22-.27.35-.27.38 0 .07.06.27.54.55.45.27 1.13.52 2.02.74 1.76.44 4.22.71 6.94.71s5.2-.27 7-.71c.9-.22 1.59-.48 2.04-.74.5-.29.56-.49.56-.55 0-.04-.03-.17-.27-.38a4.3 4.3 0 0 0-1.11-.63c-1-.43-2.46-.8-4.18-1l.12-.99c1.78.2 3.33.6 4.45 1.06.55.24 1.03.5 1.37.8.33.3.62.68.62 1.14 0 .64-.51 1.1-1.05 1.41-.58.34-1.38.62-2.32.85-1.89.46-4.45.74-7.23.74s-5.32-.28-7.18-.74a8.8 8.8 0 0 1-2.29-.85C1.3 22.1.8 21.63.8 21c0-.47.29-.85.62-1.14.35-.3.83-.56 1.4-.8 1.15-.47 2.74-.85 4.63-1.06l.1 1c-1.82.2-3.32.56-4.35.99-.51.21-.89.43-1.13.63"/>
</symbol>
<symbol id="hotline-l" viewBox="0 0 48 48">
<path fill="currentColor" d="M9 15.5C9 9.72 13.72 5 19.5 5h11C36.28 5 41 9.72 41 15.5v3.6c2.42.7 4 3.58 4 6.9 0 1.78-.44 3.42-1.21 4.67A4.75 4.75 0 0 1 41 32.91V35h-3.5c-1.34 0-2.5-1-2.5-2.4V19.5a2.5 2.5 0 0 1 2.5-2.5H40v-1.5c0-5.22-4.28-9.5-9.5-9.5h-11a9.53 9.53 0 0 0-9.5 9.5V17h2.5a2.5 2.5 0 0 1 2.5 2.5v13.1c0 1.4-1.16 2.4-2.5 2.4h-1.83c1.4 3.5 4.84 6 8.83 6h.5v-2h11v5H20v-2h-.5c-5.29 0-9.7-3.96-10.4-9.06a4.7 4.7 0 0 1-2.89-2.27A9 9 0 0 1 5 26c0-3.32 1.58-6.2 4-6.9zm1 16c0 .86.12 1.7.34 2.5h2.16c.86 0 1.5-.6 1.5-1.4V19.5c0-.82-.68-1.5-1.5-1.5H10zM9 20.16c-1.68.67-3 2.88-3 5.84a8 8 0 0 0 1.06 4.15A3.9 3.9 0 0 0 9 31.87zM40 18h-2.5c-.82 0-1.5.68-1.5 1.5v13.1c0 .8.64 1.4 1.5 1.4H40zm1 13.87a3.9 3.9 0 0 0 1.94-1.72A8.03 8.03 0 0 0 44 26c0-2.96-1.32-5.17-3-5.84v11.7ZM21 40v3h9v-3z"/>
</symbol>
<symbol id="gps-l" viewBox="0 0 48 48">
<path fill="currentColor" d="M24.5 7.5v5h-1v-5a16.5 16.5 0 0 0-16 16h5v1h-5a16.5 16.5 0 0 0 16 16v-5h1v5a16.5 16.5 0 0 0 16-16h-5v-1h5a16.5 16.5 0 0 0-16-16m0-1a17.5 17.5 0 0 1 17 17h4v1h-4a17.5 17.5 0 0 1-17 17v4h-1v-4a17.5 17.5 0 0 1-17-17h-4v-1h4a17.5 17.5 0 0 1 17-17v-4h1z"/>
</symbol>
<symbol id="help-circle-s" viewBox="0 0 24 24">
<path fill="currentColor" d="M0 11.5a11.5 11.5 0 1 1 23 0 11.5 11.5 0 0 1-23 0M11.5 1a10.5 10.5 0 1 0 0 21 10.5 10.5 0 0 0 0-21m-1.42 6.97a71 71 0 0 0-.36-.94h.01L9.77 7a7 7 0 0 1 .64-.2c.41-.12.98-.24 1.57-.28.58-.04 1.24 0 1.8.27.6.28 1.05.8 1.21 1.6.13.64-.06 1.26-.35 1.8-.3.54-.72 1.04-1.13 1.46a12.5 12.5 0 0 1-1.51 1.3V14h-1v-1.57l.22-.14.03-.03a8 8 0 0 0 .47-.34c.3-.24.7-.57 1.07-.96.39-.39.74-.82.97-1.24.23-.43.32-.8.25-1.12-.1-.5-.34-.75-.65-.9a2.7 2.7 0 0 0-1.31-.18 7 7 0 0 0-1.93.43l-.03.01ZM11 16v-1h1v1z"/>
</symbol>
<symbol id="map-layer-s" viewBox="0 0 24 24">
<path fill="currentColor" d="m11.7 19.4-8.97-5.66.54-.85 8.96 5.67c.17.1.37.1.54 0l8.96-5.67.54.85-8.97 5.66a1.5 1.5 0 0 1-1.6 0m.53-3.84c.17.1.37.1.54 0l8.3-5.25-8.3-5.23a.5.5 0 0 0-.54 0l-8.3 5.23zm-.53.84-9.64-6.09 9.64-6.08a1.5 1.5 0 0 1 1.6 0l9.64 6.08-9.64 6.1c-.49.3-1.11.3-1.6 0Z"/>
</symbol>
<symbol id="hotline-s" viewBox="0 0 24 24">
<path fill="currentColor" d="M3 6.2C3 2.75 5.4 0 9 0h6c1.78 0 3.29.65 4.35 1.77A6.33 6.33 0 0 1 21 6.2V8c.94.04 1.69.65 2.19 1.45.52.82.81 1.92.81 3.05s-.3 2.23-.81 3.05c-.5.8-1.25 1.4-2.19 1.45v1h-2.6c-.49 0-.89-.19-1.13-.57A2.1 2.1 0 0 1 17 16.3V8.6c0-.34.05-.74.28-1.06A1.3 1.3 0 0 1 18.4 7H20v-.8c0-1.54-.51-2.83-1.37-3.74A4.87 4.87 0 0 0 15 1H9C6 1 4 3.25 4 6.2V7h1.6c.49 0 .88.18 1.12.54.23.32.28.72.28 1.06v7.7c0 .38-.05.8-.27 1.13-.24.38-.64.57-1.13.57H4.12c.18 1 .59 1.85 1.17 2.5.81.93 2 1.5 3.51 1.5H9v-1h7v3H9v-1h-.2a5.51 5.51 0 0 1-4.26-1.83A6.27 6.27 0 0 1 3.1 18H3v-1a2.95 2.95 0 0 1-2.13-1.44A5.64 5.64 0 0 1 0 12.5c0-1.14.32-2.24.87-3.06A2.95 2.95 0 0 1 3 8zm0 2.82c-.46.07-.92.4-1.3.97-.42.65-.7 1.55-.7 2.51s.28 1.86.7 2.51c.38.57.84.9 1.3.97zM4 17h1.6c.12 0 .18-.02.21-.04a.2.2 0 0 0 .08-.07c.06-.09.11-.27.11-.59V8.6c0-.26-.05-.41-.1-.5-.03-.03-.09-.1-.3-.1H4zm6 5v1h5v-1zM20 8h-1.6c-.21 0-.27.07-.3.1-.05.09-.1.24-.1.5v7.7c0 .32.05.5.1.6.03.03.05.05.09.06.03.02.1.04.21.04H20zm1 8c.48-.04.96-.37 1.34-.98.4-.65.66-1.55.66-2.52s-.26-1.87-.66-2.52c-.38-.61-.86-.94-1.34-.98z"/>
</symbol>
<symbol id="forward-l" viewBox="0 0 48 48">
<path fill="currentColor" d="m19.85 32.85-.7-.7 8.64-8.65-8.64-8.65.7-.7 9.36 9.35z"/>
</symbol>
<symbol id="help-circle-l" viewBox="0 0 48 48">
<path fill="currentColor" d="M1 23.5a22.5 22.5 0 1 1 45 0 22.5 22.5 0 0 1-45 0M23.5 2a21.5 21.5 0 1 0 0 43 21.5 21.5 0 0 0 0-43m-3.31 15.86L20 17.4l-.19-.46.02-.01a5 5 0 0 1 .26-.1A12.6 12.6 0 0 1 23 16.2a5 5 0 0 1 2.52.38c.81.4 1.43 1.1 1.66 2.23.16.84-.1 1.68-.5 2.43s-.97 1.46-1.54 2.07A18 18 0 0 1 23 25.25V27h-1v-2.26l.2-.14.02-.01.03-.03a11 11 0 0 0 .66-.52c.42-.35.97-.84 1.51-1.42a9 9 0 0 0 1.4-1.86c.34-.65.48-1.25.39-1.76a2.02 2.02 0 0 0-1.11-1.53 4.03 4.03 0 0 0-2.01-.28 10 10 0 0 0-2.89.67zM22 31v-2h1v2z"/>
</symbol>
<symbol id="map-layer-l" viewBox="0 0 48 48">
<path fill="currentColor" d="M25.29 9.22a1.5 1.5 0 0 0-1.58 0L5.95 20.15l17.76 10.93c.49.3 1.1.3 1.58 0l17.76-10.93zm-2.1-.85c.8-.5 1.82-.5 2.62 0l19.14 11.78-19.14 11.78c-.8.5-1.82.5-2.62 0L4.05 20.15zm0 27.56L4.74 24.57l.52-.85 18.45 11.36c.49.3 1.1.3 1.58 0l18.45-11.36.52.85-18.45 11.36c-.8.5-1.82.5-2.62 0m0 4L4.74 28.57l.52-.85 18.45 11.36c.49.3 1.1.3 1.58 0l18.45-11.36.52.85-18.45 11.36c-.8.5-1.82.5-2.62 0"/>
</symbol>
<symbol id="documents-s" viewBox="0 0 24 24">
<path fill="currentColor" d="M3 2h12.2L20 6.8V23H3zm1 1v19h15V8h-5V3zm11 .2V7h3.8zm2 9.8H6v-1h11zm0 3H6v-1h11zm0 3H6v-1h11z"/>
</symbol>
<symbol id="documents-l" viewBox="0 0 48 48">
<path fill="currentColor" d="M6 2h23.7L41 13.3V46H6zm1 1v42h33V14H29V3zm23 .7V13h9.3zM35 27H12v-1h23zm0 6H12v-1h23zm0 6H12v-1h23z"/>
</symbol>
<symbol id="stock-market-s" viewBox="0 0 24 24">
<path fill="currentColor" d="M18 5h6v6h-1V6.7l-8.5 8.5-5-5-8.15 8.15-.7-.7L9.5 8.79l5 5L22.3 6H18z"/>
</symbol>
<symbol id="stock-market-l" viewBox="0 0 48 48">
<path fill="currentColor" d="M34.99 11H46v11.01h-1v-9.3L28.3 29.4l-9.56-9.56-15.89 15.9-.7-.71 16.6-16.6 9.55 9.55L44.3 12h-9.31z"/>
</symbol>
<symbol id="aircraft-l" viewBox="0 0 48 48">
<path fill="currentColor" d="m7.066 24-.06-.823s-.122-1.203-.122-1.457c-.061-.38-.061-.633 3.106-3.356-.061-.886-.122-3.546-.122-4.876-1.157.317-4.142 1.837-6.7 3.23l-.73.38-.184-.887c0-.063-.182-.95-.243-1.836-.061-.38-.122-1.204 7.735-7.093 0-.886-.06-3.356 0-4.432.061-1.71 1.95-2.66 2.01-2.723L12 0l.305.127c.182.126 1.949 1.14 2.01 2.723.06 1.14 0 3.546 0 4.432 7.796 5.89 7.735 6.713 7.674 7.093a18 18 0 0 1-.243 1.836l-.183.823-.731-.38c-2.497-1.393-5.543-2.913-6.7-3.23 0 1.33-.061 3.99-.122 4.877 3.167 2.723 3.106 2.976 3.106 3.356-.06.253-.121 1.456-.121 1.456l-.061.824-.731-.254s-3.655-1.203-4.325-1.456c-.548.063-2.497.76-4.08 1.393zM12 20.96c.122 0 .122 0 3.898 1.267 0-.19.061-.38.061-.507-.365-.443-1.705-1.646-2.863-2.66l-.243-.19v-.316c.06-1.583.183-4.813.122-5.636 0-.316.121-.57.304-.696.305-.19.975-.634 7.431 2.913.061-.254.061-.507.122-.76-.487-.76-4.142-3.736-7.492-6.206l-.244-.19v-.317c0-.063.122-3.42.061-4.686 0-.633-.67-1.203-1.096-1.52-.427.317-1.036.824-1.097 1.457-.06 1.33.061 4.686.061 4.686v.317l-.243.19c-3.411 2.533-7.066 5.446-7.553 6.269 0 .253.06.506.122.76 6.456-3.547 7.126-3.103 7.43-2.913.244.126.366.443.305.696-.06.823.061 4.053.122 5.636v.317l-.244.19c-1.157 1.013-2.497 2.216-2.862 2.66 0 .126 0 .316.06.443C9.32 21.72 11.27 20.96 12 20.96"/>
</symbol>
<symbol id="aircraft-s" viewBox="0 0 24 24">
<path fill="currentColor" d="m7.066 24-.06-.823s-.122-1.203-.122-1.457c-.061-.38-.061-.633 3.106-3.356-.061-.886-.122-3.546-.122-4.876-1.157.317-4.142 1.837-6.7 3.23l-.73.38-.184-.887c0-.063-.182-.95-.243-1.836-.061-.38-.122-1.204 7.735-7.093 0-.886-.06-3.356 0-4.432.061-1.71 1.95-2.66 2.01-2.723L12 0l.305.127c.182.126 1.949 1.14 2.01 2.723.06 1.14 0 3.546 0 4.432 7.796 5.89 7.735 6.713 7.674 7.093a18 18 0 0 1-.243 1.836l-.183.823-.731-.38c-2.497-1.393-5.543-2.913-6.7-3.23 0 1.33-.061 3.99-.122 4.877 3.167 2.723 3.106 2.976 3.106 3.356-.06.253-.121 1.456-.121 1.456l-.061.824-.731-.254s-3.655-1.203-4.325-1.456c-.548.063-2.497.76-4.08 1.393zM12 20.96c.122 0 .122 0 3.898 1.267 0-.19.061-.38.061-.507-.365-.443-1.705-1.646-2.863-2.66l-.243-.19v-.316c.06-1.583.183-4.813.122-5.636 0-.316.121-.57.304-.696.305-.19.975-.634 7.431 2.913.061-.254.061-.507.122-.76-.487-.76-4.142-3.736-7.492-6.206l-.244-.19v-.317c0-.063.122-3.42.061-4.686 0-.633-.67-1.203-1.096-1.52-.427.317-1.036.824-1.097 1.457-.06 1.33.061 4.686.061 4.686v.317l-.243.19c-3.411 2.533-7.066 5.446-7.553 6.269 0 .253.06.506.122.76 6.456-3.547 7.126-3.103 7.43-2.913.244.126.366.443.305.696-.06.823.061 4.053.122 5.636v.317l-.244.19c-1.157 1.013-2.497 2.216-2.862 2.66 0 .126 0 .316.06.443C9.32 21.72 11.27 20.96 12 20.96"/>
</symbol>
<symbol id="cloud-s" viewBox="0 0 24 24">
<path fill="currentColor" d="M14 4a5 5 0 0 0-3.97 1.97l-.21.27-.33-.1A3.5 3.5 0 0 0 5 9.5l.01.52-.38.1A3.5 3.5 0 0 0 5.32 17h13.37a3.5 3.5 0 0 0 .68-6.9l-.38-.09L19 9a5 5 0 0 0-5-5m5 13.97V18H5.28A4.5 4.5 0 0 1 4 9.24 4.5 4.5 0 0 1 9.44 5.1 5.99 5.99 0 0 1 20 9v.26a4.5 4.5 0 0 1-1 8.71"/>
</symbol>
<symbol id="network-s" viewBox="0 0 24 24">
<path fill="currentColor" d="M6 3a1 1 0 1 0 0 2 1 1 0 0 0 0-2M4 4a2 2 0 1 1 3.56 1.25l2.46 3.27a3.98 3.98 0 0 1 4.67.52l2.51-2.16A2 2 0 0 1 19 4a2 2 0 1 1-1.14 3.64L15.34 9.8a3.98 3.98 0 0 1 .63 2.68l2.27.57a2 2 0 1 1-.24.97l-2.27-.57a4 4 0 0 1-6.18 1.71l-3.83 3.82a2 2 0 1 1-.7-.7l3.82-3.83a3.98 3.98 0 0 1 .38-5.32L6.76 5.85A2 2 0 0 1 4 4m15 1a1 1 0 1 0 0 2 1 1 0 0 0 0-2m-7 4a2.98 2.98 0 0 0-3 3 2.99 2.99 0 0 0 3 3 3 3 0 0 0 0-6m8 4a1 1 0 1 0 0 2 1 1 0 0 0 0-2M4 19a1 1 0 1 0 0 2 1 1 0 0 0 0-2"/>
</symbol>
<symbol id="network-l" viewBox="0 0 48 48">
<path fill="currentColor" d="M12.5 6a2.5 2.5 0 1 0 0 5 2.5 2.5 0 0 0 0-5M9 8.5a3.5 3.5 0 1 1 5.98 2.47l5.43 7.24a7.47 7.47 0 0 1 9.45 1.04l5.68-4.88a3.5 3.5 0 1 1 .65.76l-5.68 4.88a7.47 7.47 0 0 1 1.37 5.82l5.38 1.34a3.5 3.5 0 1 1-.24.97l-5.38-1.34a7.5 7.5 0 0 1-12.08 3.35L11.3 38.4a3.5 3.5 0 1 1-.7-.7l8.25-8.26a7.47 7.47 0 0 1 .76-10.63l-5.43-7.24A3.5 3.5 0 0 1 9 8.5M38.5 10a2.5 2.5 0 1 0 0 5 2.5 2.5 0 0 0 0-5m-14 8a6.47 6.47 0 0 0-6.5 6.5 6.48 6.48 0 0 0 6.5 6.5 6.5 6.5 0 0 0 0-13m16 8a2.5 2.5 0 1 0 0 5 2.5 2.5 0 0 0 0-5m-32 12a2.5 2.5 0 1 0 0 5 2.5 2.5 0 0 0 0-5"/>
</symbol>
<symbol id="departure-s" viewBox="0 0 24 24">
<path fill="currentColor" d="M.061 15.706a.6.6 0 0 0-.06.272c0 .1.026.197.077.281a.5.5 0 0 0 .212.197c1.206.63 1.911.98 2.473 1.257l.504.25v.001l.356.175c.412.201.843.412 1.523.762l.015.008.016.005c.32.098.66.112.99.041.326-.07.633-.22.892-.438l15.21-9.694a6 6 0 0 0 1.089-.84c.333-.27.556-.658.622-1.084a1.67 1.67 0 0 0-.27-1.202.53.53 0 0 0-.206-.206l-.009-.005c-.84-.407-1.439-.567-2.106-.447-.648.117-1.343.496-2.382 1.086l-.003.002-4.922 2.92q-.722-.118-1.522-.236l-.072-.01c-.583-.089-1.189-.18-1.806-.284h-.002l-1.113-.176h-.003c-1.45-.228-2.965-.467-4.461-.713a1.5 1.5 0 0 0-.638.027 1.6 1.6 0 0 0-.575.28l-.683.45a.91.91 0 0 0-.497.737v.019a.66.66 0 0 0 .337.574l5.422 3.199-2.565 1.652-1.726-.1-1.982-.11h-.003a.6.6 0 0 0-.322.083l-.006.004L.25 15.49l-.005.003a.6.6 0 0 0-.184.213m4.037-.111 1.831.107a.7.7 0 0 0 .443-.114l3.226-2.041.004-.003a.78.78 0 0 0 .257-1.007.7.7 0 0 0-.255-.268l-.002-.001-5.399-3.21.296-.174.009-.005c.126-.083.193-.12.247-.137a.35.35 0 0 1 .173-.004c.95.147 1.903.3 2.84.451l.056.01c.918.147 1.821.293 2.694.428 1.268.196 2.465.382 3.524.556l.01.001a.6.6 0 0 0 .228-.017l.077-.015a.6.6 0 0 0 .171-.056l.012-.007 5.02-2.987c.987-.537 1.522-.824 1.966-.915.405-.083.743-.005 1.325.267a.5.5 0 0 1 .05.151c.007.062 0 .14-.052.244-.11.223-.414.55-1.144 1.022L6.457 17.578l-.009.006c-.266.19-.463.268-.6.296a.53.53 0 0 1-.248 0c-.803-.42-1.235-.63-1.772-.893l-.18-.087c-.496-.243-1.055-.516-1.997-.996l.627-.423z"/>
</symbol>
<symbol id="arrival-s" viewBox="0 0 24 24">
<path fill="currentColor" d="M.384 7.883a.55.55 0 0 0-.23.145.52.52 0 0 0-.126.534c.416 1.286.673 2.025.877 2.613.065.187.125.359.182.528v.001l.131.372c.152.43.31.879.548 1.6l.005.017.008.014c.157.294.388.544.67.728.279.181.6.293.933.326l17.424 4.04c.44.113.893.176 1.348.188a1.7 1.7 0 0 0 1.188-.31c.34-.247.57-.612.64-1.02a.53.53 0 0 0-.004-.287l-.003-.01c-.312-.875-.623-1.407-1.177-1.796-.538-.376-1.29-.605-2.43-.93l-.004-.001-5.49-1.456c-.283-.394-.59-.808-.91-1.237l-.043-.059a115 115 0 0 1-1.08-1.47l-.665-.908-.002-.002c-.864-1.18-1.769-2.415-2.655-3.64a1.6 1.6 0 0 0-.468-.431 1.6 1.6 0 0 0-.6-.212l-.792-.173a.9.9 0 0 0-.86.16l-.007.005-.006.007a.64.64 0 0 0-.158.634l1.617 6.034-2.951-.669-1.149-1.286-1.322-1.475-.002-.003a.6.6 0 0 0-.284-.169l-.008-.002-1.862-.416-.006-.001a.56.56 0 0 0-.277.017m2.926 2.772 1.217 1.366c.1.12.239.201.392.233l3.685.867.005.001a.77.77 0 0 0 .69-.2.72.72 0 0 0 .192-.679v-.002L7.895 6.216l.33.088.01.003c.146.031.219.053.268.08a.34.34 0 0 1 .125.119c.57.772 1.136 1.55 1.693 2.315l.033.046c.545.75 1.082 1.488 1.605 2.197.76 1.03 1.475 2.003 2.102 2.87l.006.008q.073.09.173.149l.065.044a.6.6 0 0 0 .16.082l.012.003 5.606 1.481c1.066.325 1.642.505 2.018.755.343.228.527.52.75 1.119a.5.5 0 0 1-.07.14.4.4 0 0 1-.204.132c-.231.075-.671.087-1.512-.102l-17.46-4.057-.01-.002c-.32-.056-.512-.142-.628-.219a.54.54 0 0 1-.175-.175c-.277-.856-.436-1.306-.634-1.867l-.067-.187c-.182-.518-.388-1.1-.721-2.097l.734.151z"/>
</symbol>
<symbol id="groups-s" viewBox="0 0 24 24">
<path fill="currentColor" d="M15.5 3c-.82 0-1.5.68-1.5 1.5v2c0 .82.68 1.5 1.5 1.5h2c.82 0 1.5-.68 1.5-1.5v-2c0-.82-.68-1.5-1.5-1.5zM13 4.5A2.5 2.5 0 0 1 15.5 2h2A2.5 2.5 0 0 1 20 4.5v2A2.5 2.5 0 0 1 17.5 9h-2A2.5 2.5 0 0 1 13 6.5zM6.5 5C5.68 5 5 5.68 5 6.5v2c0 .82.68 1.5 1.5 1.5h2c.82 0 1.5-.68 1.5-1.5v-2C10 5.68 9.32 5 8.5 5zM4 6.5A2.5 2.5 0 0 1 6.5 4h2A2.5 2.5 0 0 1 11 6.5v2A2.5 2.5 0 0 1 8.5 11h-2A2.5 2.5 0 0 1 4 8.5zm8 4.5h9.5c.41 0 .8.14 1.08.42s.42.67.42 1.08V19h-8v-1h7v-5.5c0-.19-.06-.3-.13-.37S21.7 12 21.5 12H12zm-9.87 3.13c-.07.07-.13.18-.13.37V20h11v-5.5c0-.19-.06-.3-.13-.37S12.7 14 12.5 14h-10c-.19 0-.3.06-.37.13m-.7-.7A1.5 1.5 0 0 1 2.5 13h10c.41 0 .8.14 1.08.42s.42.67.42 1.08V21H1v-6.5c0-.41.14-.8.42-1.08Z"/>
</symbol>
<symbol id="groups-s" viewBox="0 0 24 24">
<path fill="currentColor" d="M28.5 7A2.45 2.45 0 0 0 26 9.5v6c0 1.42 1.08 2.5 2.5 2.5h6c1.42 0 2.5-1.08 2.5-2.5v-6C37 8.08 35.92 7 34.5 7zM25 9.5C25 7.52 26.52 6 28.5 6h6C36.48 6 38 7.52 38 9.5v6c0 1.98-1.52 3.5-3.5 3.5h-6a3.45 3.45 0 0 1-3.5-3.5zm-12.5.5a2.45 2.45 0 0 0-2.5 2.5v6c0 1.42 1.08 2.5 2.5 2.5h6c1.42 0 2.5-1.08 2.5-2.5v-6c0-1.42-1.08-2.5-2.5-2.5zM9 12.5C9 10.52 10.52 9 12.5 9h6c1.98 0 3.5 1.52 3.5 3.5v6c0 1.98-1.52 3.5-3.5 3.5h-6A3.45 3.45 0 0 1 9 18.5zM24 22h16.5c1.98 0 3.5 1.52 3.5 3.5V38H30.1v-1H43V25.5c0-1.42-1.08-2.5-2.5-2.5H24zM6.5 26A2.45 2.45 0 0 0 4 28.5V40h23V28.5c0-1.42-1.08-2.5-2.5-2.5zM3 28.5C3 26.52 4.52 25 6.5 25h18c1.98 0 3.5 1.52 3.5 3.5V41H3z"/>
</symbol>
<symbol id="light-theme-s" viewBox="0 0 24 24">
<path fill="currentColor" d="M 14.672818,12 A 2.6728182,2.6728182 0 0 1 11.999999,14.672818 2.6728182,2.6728182 0 0 1 9.3271815,12 2.6728182,2.6728182 0 0 1 11.999999,9.327182 2.6728182,2.6728182 0 0 1 14.672818,12 Z"/><path stroke="currentColor" d="M 12,4.8409489 V 7.5790861 M 6.9377864,6.9377864 8.8739418,8.8739418 M 4.8409489,12 H 7.5790861 M 6.9377864,17.062214 8.8739418,15.126058 M 12,19.159051 v -2.738137 m 5.062214,0.6413 -1.936156,-1.936156 M 19.159051,12 h -2.738137 m 0.6413,-5.0622136 -1.936156,1.9361554"/>
</symbol>
<symbol id="dark-theme-s" viewBox="0 0 24 24">
<path fill="currentColor" d="M 9.0082981,18.141307 C 8.4976682,17.960211 7.6548159,17.448202 7.1352931,17.003509 L 6.1907061,16.194978 7.6808629,15.693494 C 10.983391,14.582093 12.809572,11.344858 11.973972,8.0831892 11.788994,7.3611525 11.469643,6.5139847 11.264301,6.2005948 11.058961,5.8872049 10.939042,5.5827069 10.997817,5.5239332 c 0.05878,-0.058779 0.64144,-0.00551 1.294811,0.1184273 5.359107,1.0163336 7.34324,7.1434205 3.563582,11.0044895 -1.652365,1.687955 -4.530963,2.316168 -6.8479119,1.494457 z"/>
</symbol>
</svg>